<?xml version="1.0" encoding="utf-8"?><!DOCTYPE svg PUBLIC "-//W3C//DTD SVG 1.1//EN" "http://www.w3.org/Graphics/SVG/1.1/DTD/svg11.dtd"><svg version="1.1" id="facebook-square" xmlns="http://www.w3.org/2000/svg" xmlns:xlink="http://www.w3.org/1999/xlink" x="0px"
	 y="0px" viewBox="0 0 800 800" enable-background="new 0 0 800 800" xml:space="preserve"><path d="M400,16C187.9,16,16,187.9,16,400s171.9,384,384,384s384-171.9,384-384S612.1,16,400,16z M596,530.7
	c0,36-29.4,65.3-65.3,65.3H269.3c-35.9,0-65.3-29.4-65.3-65.3V269.3c0-35.9,29.4-65.3,65.3-65.3h261.3c35.9,0,65.3,29.4,65.3,65.3
	V530.7z"/><path d="M473.6,313.5c0-15.8,2-24.3,18.3-24.3h54.8v-60.7h-67.1c-58.2,0-79.6,29.4-79.6,79v36.4h-35.4V400H400v171.5
	h73.5V400h63.8h0v0l9.7-56.1h-73.5L473.6,313.5z"/></svg>
