<?xml version="1.0" encoding="utf-8"?>
<!-- Generator: Adobe Illustrator 19.0.0, SVG Export Plug-In . SVG Version: 6.00 Build 0)  -->
<svg version="1.1" id="Layer_1" xmlns="http://www.w3.org/2000/svg" xmlns:xlink="http://www.w3.org/1999/xlink" x="0px" y="0px"
	 viewBox="-25 27 48 48" style="enable-background:new -25 27 48 48;" xml:space="preserve">
<path d="M2,43.6c-0.7-0.3-1-1-1.1-1.6c-0.1-2.2-0.5-4.5-1.2-6.6c-0.3-1,0.2-2,1.1-2.4L7,30.8c1-0.3,2,0.2,2.4,1.1
	c5.9,16.5-2.7,34.7-19.2,40.6c-1,0.3-2-0.2-2.4-1.1l-2.2-6.2c-0.3-1,0.2-2,1.1-2.4c2.2-0.8,4.2-1.9,5.9-3.3c0.5-0.4,1.3-0.5,1.9-0.2
	l5.3,2.5c4.1-4.3,6.7-9.9,7.5-15.7L2,43.6z"/>
</svg>
