<?xml version="1.0" encoding="utf-8"?><svg xmlns="http://www.w3.org/2000/svg" viewBox="0 0 48 48" width="48" height="48"><path d="M41.8 30.8l-.5-1.9-4.6 1.2-3.5-2 5.4-1.4-.6-1.9-7.2 1.9-4.9-2.8 4.4-2.5 7.5 2 .5-2-5.5-1.4 3.5-2.1 4.8 1.3.5-1.9-2.9-.8 2.1-1.2-1-1.7-1.8 1 .7-2.7-1.9-.5-1.2 4.6-3.4 2 1.4-5.3-1.9-.5-2 7.2-4.7 2.7V17l5.3-5.3-1.4-1.4-3.9 3.9v-4.1l3.4-3.4-1.5-1.4-1.9 2V5h-2v2.2l-2.1-2.1-1.4 1.4 3.5 3.6V14l-4.1-4-1.4 1.4 5.5 5.4v5.4l-4.6-2.6-2-7.3-1.9.5 1.4 5.3-3.5-2-1.2-4.6-1.9.5.7 2.7-2-1.1-1 1.7 1.9 1.1-2.8.8.5 1.9 4.8-1.3 3.4 2-5.5 1.5.5 1.9 7.5-2 4.6 2.7-4.6 2.7-7.2-2-.6 2 5.3 1.4-3.5 2-4.5-1.2-.6 1.9 2.7.7-2 1.2 1 1.7 2-1.1-.8 2.9 1.9.5 1.3-4.8 3.4-2-1.5 5.5 2 .5 2-7.4 4.8-2.8v5.2l-5.5 5.5 1.4 1.4 4.1-4v4l-3.5 3.6 1.4 1.4 2.1-2.1V43h2v-2.1l1.9 2 1.5-1.4-3.4-3.4v-3.9l3.9 3.8 1.4-1.4-5.3-5.3v-5.6l4.4 2.5 2 7.5 1.9-.5-1.5-5.6 3.6 2.1 1.2 4.8 2-.5-.8-2.9 2.1 1.2 1-1.7-1.8-1.1"/></svg>