<svg width="0" height="0" style="position:absolute"><defs><svg viewBox="0 0 48 48" id="location--icon-map-marker"><path d="M24 4c-7.73 0-14 6.27-14 14 0 10.5 14 26 14 26s14-15.5 14-26c0-7.73-6.27-14-14-14zm0 19c-2.76 0-5-2.24-5-5s2.24-5 5-5 5 2.24 5 5-2.24 5-5 5z"/><path d="M0 0h48v48H0z" fill="none"/></svg><svg viewBox="0 0 48 48" id="social--icon-heart-filled"><path d="M0 0h48v48H0z" fill="none"/><path d="M24 42.7l-2.9-2.63C10.8 30.72 4 24.55 4 17 4 10.83 8.83 6 15 6c3.48 0 6.82 1.62 9 4.17C26.18 7.62 29.52 6 33 6c6.17 0 11 4.83 11 11 0 7.55-6.8 13.72-17.1 23.07L24 42.7z"/></svg><svg viewBox="0 0 48 48" id="social--icon-heart-outline"><path d="M0 0h48v48H0z" fill="none"/><path d="M33 6c-3.48 0-6.82 1.62-9 4.17C21.82 7.62 18.48 6 15 6 8.83 6 4 10.83 4 17c0 7.55 6.8 13.72 17.1 23.07L24 42.7l2.9-2.63C37.2 30.72 44 24.55 44 17c0-6.17-4.83-11-11-11zm-8.79 31.11l-.21.19-.21-.19C14.28 28.48 8 22.78 8 17c0-3.99 3.01-7 7-7 3.08 0 6.08 1.99 7.13 4.72h3.73C26.92 11.99 29.92 10 33 10c3.99 0 7 3.01 7 7 0 5.78-6.28 11.48-15.79 20.11z"/></svg><svg viewBox="0 0 48 48" id="weather--icon-cloud"><path d="M0 0h48v48H0z" fill="none"/><path d="M38.71 20.07C37.35 13.19 31.28 8 24 8c-5.78 0-10.79 3.28-13.3 8.07C4.69 16.72 0 21.81 0 28c0 6.63 5.37 12 12 12h26c5.52 0 10-4.48 10-10 0-5.28-4.11-9.56-9.29-9.93zM38 36H12c-4.42 0-8-3.58-8-8s3.58-8 8-8h1.42c1.31-4.61 5.54-8 10.58-8 6.08 0 11 4.92 11 11v1h3c3.31 0 6 2.69 6 6s-2.69 6-6 6z"/></svg><svg viewBox="0 0 48 48" id="weather--icon-crescent-moon"><path d="M20 4c-3.65 0-7.06.99-10 2.7 5.97 3.46 10 9.9 10 17.3s-4.03 13.84-10 17.3c2.94 1.71 6.35 2.7 10 2.7 11.05 0 20-8.95 20-20S31.05 4 20 4z"/><path d="M0 0h48v48H0z" fill="none"/></svg><svg viewBox="0 0 48 48" id="weather--icon-full-moon"><circle cx="24" cy="24" r="20"/><path d="M0 0h48v48H0z" fill="none"/></svg><svg viewBox="0 0 48 48" id="weather--icon-overcast"><path d="M0 0h48v48H0z" fill="none"/><path d="M38.71 20.07C37.35 13.19 31.28 8 24 8c-5.78 0-10.79 3.28-13.3 8.07C4.69 16.72 0 21.81 0 28c0 6.63 5.37 12 12 12h26c5.52 0 10-4.48 10-10 0-5.28-4.11-9.56-9.29-9.93z"/></svg><svg viewBox="0 0 48 48" id="weather--icon-partly-sunny"><path d="M0 0h48v48H0z" fill="none"/><path d="M40 30.63L46.63 24 40 17.37V8h-9.37L24 1.37 17.37 8H8v9.37L1.37 24 8 30.63V40h9.37L24 46.63 30.63 40H40v-9.37zM24 36V12c6.63 0 12 5.37 12 12s-5.37 12-12 12z"/></svg><svg viewBox="0 0 48 48" id="weather--icon-rain"><path d="M37.6 31.2c0 7.6-6.2 13.8-13.8 13.8S9.9 38.8 9.9 31.2 23.7 3.1 23.7 3.1s13.9 20.4 13.9 28.1z"/></svg><svg viewBox="0 0 48 48" id="weather--icon-snow"><path d="M41.8 30.8l-.5-1.9-4.6 1.2-3.5-2 5.4-1.4-.6-1.9-7.2 1.9-4.9-2.8 4.4-2.5 7.5 2 .5-2-5.5-1.4 3.5-2.1 4.8 1.3.5-1.9-2.9-.8 2.1-1.2-1-1.7-1.8 1 .7-2.7-1.9-.5-1.2 4.6-3.4 2 1.4-5.3-1.9-.5-2 7.2-4.7 2.7V17l5.3-5.3-1.4-1.4-3.9 3.9v-4.1l3.4-3.4-1.5-1.4-1.9 2V5h-2v2.2l-2.1-2.1-1.4 1.4 3.5 3.6V14l-4.1-4-1.4 1.4 5.5 5.4v5.4l-4.6-2.6-2-7.3-1.9.5 1.4 5.3-3.5-2-1.2-4.6-1.9.5.7 2.7-2-1.1-1 1.7 1.9 1.1-2.8.8.5 1.9 4.8-1.3 3.4 2-5.5 1.5.5 1.9 7.5-2 4.6 2.7-4.6 2.7-7.2-2-.6 2 5.3 1.4-3.5 2-4.5-1.2-.6 1.9 2.7.7-2 1.2 1 1.7 2-1.1-.8 2.9 1.9.5 1.3-4.8 3.4-2-1.5 5.5 2 .5 2-7.4 4.8-2.8v5.2l-5.5 5.5 1.4 1.4 4.1-4v4l-3.5 3.6 1.4 1.4 2.1-2.1V43h2v-2.1l1.9 2 1.5-1.4-3.4-3.4v-3.9l3.9 3.8 1.4-1.4-5.3-5.3v-5.6l4.4 2.5 2 7.5 1.9-.5-1.5-5.6 3.6 2.1 1.2 4.8 2-.5-.8-2.9 2.1 1.2 1-1.7-1.8-1.1"/></svg><svg viewBox="0 0 48 48" id="weather--icon-sunny"><path d="M0 0h48v48H0z" fill="none"/><path d="M40 30.63L46.63 24 40 17.37V8h-9.37L24 1.37 17.37 8H8v9.37L1.37 24 8 30.63V40h9.37L24 46.63 30.63 40H40v-9.37zM24 36c-6.63 0-12-5.37-12-12s5.37-12 12-12 12 5.37 12 12-5.37 12-12 12z"/></svg><svg viewBox="0 0 48 48" id="weather--icon-thin-crescent-moon"><path d="M18 4c-2.09 0-4.11.32-6 .92C20.11 7.47 26 15.05 26 24c0 8.95-5.89 16.53-14 19.08 1.89.59 3.91.92 6 .92 11.05 0 20-8.95 20-20S29.05 4 18 4z"/><path d="M0 0h48v48H0z" fill="none"/></svg></defs></svg>