<svg version="1.1" xmlns="http://www.w3.org/2000/svg" xmlns:xlink="http://www.w3.org/1999/xlink" x="0px" y="0px"
	 viewBox="0 0 48 48" enable-background="new 0 0 48 48" xml:space="preserve">
<polygon points="41.8,30.8 41.3,28.9 36.7,30.1 33.2,28.1 38.6,26.7 38,24.8 30.8,26.7 25.9,23.9 30.3,21.4 
	37.8,23.4 38.3,21.4 32.8,20 36.3,17.9 41.1,19.2 41.6,17.3 38.7,16.5 40.8,15.3 39.8,13.6 38,14.6 38.7,11.9 36.8,11.4 35.6,16
	32.2,18 33.6,12.7 31.7,12.2 29.7,19.4 25,22.1 25,17 30.3,11.7 28.9,10.3 25,14.2 25,10.1 28.4,6.7 26.9,5.3 25,7.3 25,5 23,5
	23,7.2 20.9,5.1 19.5,6.5 23,10.1 23,14 18.9,10 17.5,11.4 23,16.8 23,22.2 18.4,19.6 16.4,12.3 14.5,12.8 15.9,18.1 12.4,16.1
	11.2,11.5 9.3,12 10,14.7 8,13.6 7,15.3 8.9,16.4 6.1,17.2 6.6,19.1 11.4,17.8 14.8,19.8 9.3,21.3 9.8,23.2 17.3,21.2 21.9,23.9
	17.3,26.6 10.1,24.6 9.5,26.6 14.8,28 11.3,30 6.8,28.8 6.2,30.7 8.9,31.4 6.9,32.6 7.9,34.3 9.9,33.2 9.1,36.1 11,36.6 12.3,31.8
	15.7,29.8 14.2,35.3 16.2,35.8 18.2,28.4 23,25.6 23,30.8 17.5,36.3 18.9,37.7 23,33.7 23,37.7 19.5,41.3 20.9,42.7 23,40.6 23,43
	25,43 25,40.9 26.9,42.9 28.4,41.5 25,38.1 25,34.2 28.9,38 30.3,36.6 25,31.3 25,25.7 29.4,28.2 31.4,35.7 33.3,35.2 31.8,29.6
	35.4,31.7 36.6,36.5 38.6,36 37.8,33.1 39.9,34.3 40.9,32.6 39.1,31.5 "/>
</svg>
